<?xml version="1.0" encoding="UTF-8" standalone="no"?>
<!-- Created with Inkscape (http://www.inkscape.org/) -->

<svg
   width="60.047867mm"
   height="71.584084mm"
   viewBox="0 0 60.047867 71.584084"
   version="1.1"
   id="svg1"
   xml:space="preserve"
   sodipodi:docname="weles.svg"
   inkscape:export-filename="weles.png"
   inkscape:export-xdpi="96"
   inkscape:export-ydpi="96"
   inkscape:version="1.3.2 (091e20e, 2023-11-25, custom)"
   xmlns:inkscape="http://www.inkscape.org/namespaces/inkscape"
   xmlns:sodipodi="http://sodipodi.sourceforge.net/DTD/sodipodi-0.dtd"
   xmlns:xlink="http://www.w3.org/1999/xlink"
   xmlns="http://www.w3.org/2000/svg"
   xmlns:svg="http://www.w3.org/2000/svg"><sodipodi:namedview
     id="namedview1"
     pagecolor="#505050"
     bordercolor="#eeeeee"
     borderopacity="1"
     inkscape:showpageshadow="0"
     inkscape:pageopacity="0"
     inkscape:pagecheckerboard="0"
     inkscape:deskcolor="#505050"
     inkscape:document-units="mm"
     inkscape:zoom="1.0242632"
     inkscape:cx="48.815577"
     inkscape:cy="154.25722"
     inkscape:window-width="1435"
     inkscape:window-height="1032"
     inkscape:window-x="86"
     inkscape:window-y="44"
     inkscape:window-maximized="0"
     inkscape:current-layer="layer1" /><defs
     id="defs1"><clipPath
       clipPathUnits="userSpaceOnUse"
       id="clipPath23"><use
         x="0"
         y="0"
         xlink:href="#g22"
         id="use23" /></clipPath></defs><g
     inkscape:label="Warstwa 1"
     inkscape:groupmode="layer"
     id="layer1"
     transform="translate(-72.327503,-163.59712)"><path
       style="fill:#000000"
       id="path1"
       d="" /><path
       style="fill:#000000"
       id="path18"
       d="" /><path
       style="fill:#000000"
       id="path17"
       d="" /><path
       style="fill:#000000"
       id="path16"
       d="" /><g
       id="g23"
       clip-path="url(#clipPath23)"><g
         inkscape:label="Clip"
         id="g22"><path
           style="fill:#241c1c"
           d="m 84.108405,232.66762 v -2.51355 h 0.264583 0.264583 v 1.05834 1.05833 h 1.322917 l 1.51699,0.0114 0.02283,-1.06975 -0.01142,-1.05834 h 0.191386 0.396875 v 2.51355 2.51354 H 87.68028 l -0.157138,-0.0228 0.01142,-1.17922 -0.05708,-1.19062 -1.51699,0.0114 h -1.322917 v 1.19062 1.19063 h -0.264583 -0.264583 z m 9.434624,2.24584 -0.660496,-0.52049 -0.491823,-0.79944 -0.103677,-1.00493 0.16641,-0.663 0.1664,-0.66301 0.459917,-0.75138 0.848063,-0.4774 1.039916,-0.14841 1.017084,0.14841 0.848063,0.51165 0.459917,0.71713 0.1664,0.66301 0.16641,0.663 -0.149941,0.97251 -0.458175,0.81267 -0.678658,0.55209 -0.827076,0.25529 -0.60845,-0.0106 -0.60845,-0.0106 z m 2.686324,-0.80094 0.362145,-0.53948 0.216905,-1.00702 -0.136993,-0.91568 -0.395587,-0.57331 -0.543996,-0.37924 -0.820154,-0.10274 -0.77448,0.10274 -0.54502,0.49983 -0.396602,0.67108 -0.09133,0.81792 0.09133,0.84076 0.487722,0.58514 0.63614,0.47097 0.63689,0.0685 0.63689,-0.11416 z m 6.664467,-1.29504 -0.0114,-2.22668 -1.45823,0.004 0.0144,-0.36137 h 1.85208 1.85209 l -0.0312,0.31571 -1.45823,0.0417 0.0343,2.22668 v 2.36368 h -0.39688 -0.39687 z m 6.35,-0.14986 v -2.51355 l 1.38906,0.0376 1.38906,0.0375 -0.017,0.34655 -2.17232,-0.0248 -0.0183,0.8599 0.014,0.87603 0.854,-0.0161 h 0.94281 v 0.26458 0.26459 h -0.92604 -0.92604 v 0.92604 0.92604 h 1.05833 1.05833 v 0.26458 0.26459 h -1.32291 -1.32292 z m 7.14375,0 v -2.51355 h 0.39687 0.39688 v 2.24896 2.24896 h 0.79375 0.79375 v 0.26458 0.26459 h -1.19063 -1.19062 z m -38.006027,-10.09682 -0.955671,-2.07402 -1.662217,-3.63802 -1.662216,-3.63802 h 1.301558 1.301558 l -0.299343,0.47932 -0.299343,0.47933 1.799781,4.02404 1.799781,4.02403 0.180944,-0.20388 0.180945,-0.20388 1.501875,-3.94901 1.501876,-3.94901 -0.134488,-0.35047 -0.134487,-0.35047 h 1.174017 1.174017 l -0.134676,0.35096 -0.134676,0.35096 1.761719,3.94852 1.761719,3.94852 0.186866,0.20487 0.186866,0.20488 1.547797,-4.00327 1.547798,-4.00326 -0.312937,-0.50109 -0.312935,-0.50109 h 1.199662 1.19966 l -0.44948,0.8599 -0.44948,0.85989 -1.908891,4.75261 -1.908895,4.75261 -0.282231,0.0941 -0.282231,0.0941 -1.035245,-2.06857 -1.035245,-2.06856 -1.131234,-2.57969 -1.131235,-2.57968 h -0.174417 -0.174416 l -1.838315,4.54704 -1.838315,4.54705 -0.335074,0.10666 -0.335075,0.10666 z m 16.56547,1.51525 0.27389,-0.51177 v -4.665 -4.66499 l -0.27389,-0.51178 -0.27389,-0.51177 h 3.72002 3.720027 l 0.25803,0.67868 0.25804,0.67869 v 0.16798 0.16798 l -0.3175,-0.3175 -0.3175,-0.3175 h -2.725207 -2.72521 v 1.7198 1.71979 h 2.46062 2.460627 l 0.3175,-0.3175 0.3175,-0.3175 v 1.12056 1.12056 l -0.51177,-0.2739 -0.51178,-0.27389 h -2.266347 -2.26635 v 2.38125 2.38125 h 2.72521 2.725207 l 0.3175,-0.3175 0.3175,-0.3175 v 0.16798 0.16799 l -0.25804,0.67868 -0.25803,0.67868 h -3.720027 -3.72002 z m 9.216807,0.19427 0.3175,-0.3175 v -5.05354 -5.05354 l -0.3175,-0.3175 -0.3175,-0.3175 h 1.25285 1.25285 l -0.27389,0.51177 -0.27389,0.51178 v 4.6476 4.6476 h 2.76251 2.76251 l 0.16352,-0.26458 0.16352,-0.26459 h 0.22598 0.22599 l -0.29961,0.79375 -0.2996,0.79375 h -3.83137 -3.83137 z m 8.99583,0 0.3175,-0.3175 v -5.05354 -5.05354 l -0.3175,-0.3175 -0.3175,-0.3175 h 3.86349 3.8635 l 0.27753,0.79614 0.27754,0.79614 -0.49884,-0.26697 -0.49885,-0.26698 h -2.66322 -2.66323 v 1.7432 1.74321 l 2.91074,-0.0896 2.91074,-0.0896 -3.2e-4,0.8882 -3.3e-4,0.8882 -0.46302,-0.22223 -0.46302,-0.22223 -2.38125,-0.005 -2.38125,-0.005 -0.0765,2.31511 -0.0764,2.3151 h 2.77281 2.77281 l 0.16352,-0.26458 0.16352,-0.26459 h 0.22599 0.22598 l -0.2996,0.79375 -0.29961,0.79375 h -3.83137 -3.83137 z m 9.08323,-0.72737 -0.28187,-0.91259 0.1029,-0.1029 0.1029,-0.1029 0.80199,0.59294 0.802,0.59295 1.22642,0.0257 1.22642,0.0257 0.50593,-0.62462 0.50592,-0.62463 v -0.77646 -0.77647 l -0.61724,-0.58328 -0.61725,-0.58329 -1.51648,-0.92241 -1.51648,-0.92241 -0.51211,-0.82861 -0.51211,-0.82861 v -0.44493 -0.44493 l 0.3844,-0.74334 0.3844,-0.74335 0.80029,-0.33149 0.80029,-0.33149 0.86583,0.14938 0.86583,0.14937 0.8599,0.17488 0.85989,0.17488 -0.006,1.09445 -0.006,1.09445 -0.45714,-0.56435 -0.45714,-0.56435 -0.57792,-0.29555 -0.57792,-0.29555 h -0.89051 -0.89052 l -0.3175,0.3175 -0.3175,0.3175 v 0.74335 0.74335 l 0.99218,0.66983 0.99219,0.66983 1.31499,0.84901 1.31498,0.84901 0.35951,0.95263 0.35951,0.95264 -0.29888,1.10995 -0.29888,1.10995 -0.84645,0.52273 -0.84645,0.52273 -1.89234,-0.0718 -1.89234,-0.0718 z"
           id="path19"
           sodipodi:nodetypes="ccccccccccccccccccccccccccccccccccccccccccccccccccccccccccccccccccccccccccccccccccccccccccccccccccccccccccccccccccccccccccccccccccccccccccccccccccccccccccccccccccccccccccccccccccccccccccccccccccccccccccccccccccccccccccccccccccccccccccccccccccccccccccccccccccccccccccccccccccccccccccccccccccccccccccccccccccccccccc" /><path
           style="fill:#a05a2c;stroke-width:0.0211149"
           d="m 102.23923,206.38374 c -0.0684,-0.13489 -13.327708,-28.57445 -13.327708,-28.58638 0,-0.006 6.019341,-0.011 13.376298,-0.011 7.35697,0 13.3763,0.005 13.3763,0.0111 0,0.0216 -13.34532,28.62993 -13.3642,28.64882 -0.0116,0.0116 -0.0358,-0.0133 -0.0607,-0.0624 z m 3.12814,-17.52262 3.00292,-6.44005 -3.03425,-0.005 c -1.66883,-0.003 -4.40594,-0.003 -6.082444,0 l -3.048206,0.005 3.040717,6.52068 3.040723,6.52068 0.0388,-0.0806 c 0.0214,-0.0443 1.39011,-2.97865 3.04173,-6.52068 z M 85.068892,169.56736 c -1.317056,-2.82491 -2.482422,-5.32386 -2.589696,-5.55322 l -0.195057,-0.41702 h 2.571719 2.571711 l 1.509012,3.23586 1.508998,3.23586 h 11.842241 11.84225 l 1.50899,-3.23586 1.50902,-3.23586 h 2.57171 2.57172 l -0.19505,0.41702 c -0.10728,0.22936 -1.27265,2.72831 -2.58971,5.55322 l -2.39466,5.1362 H 102.28782 87.463554 Z"
           id="path12"
           inkscape:connector-curvature="0" /><path
           style="fill:#c87137;stroke-width:0.0127501"
           d="m 104.95852,206.64422 c 0.0375,-0.0842 8.35482,-17.27604 8.36038,-17.2806 0.002,-0.002 2.24782,2.8649 4.98889,6.37157 2.74109,3.50668 4.98145,6.37769 4.97861,6.38002 -0.0103,0.007 -18.31859,4.58363 -18.33443,4.58185 -0.0101,-0.002 -0.007,-0.0222 0.007,-0.0528 z m 9.33397,-5.20752 4.12098,-1.03055 -1.12818,-1.44818 c -0.62038,-0.79659 -1.64019,-2.10123 -2.26621,-2.89919 l -1.13805,-1.45101 -1.9068,3.94207 -1.90681,3.94207 0.052,-0.0123 c 0.0286,-0.007 1.90648,-0.47609 4.17303,-1.04287 z m 1.43127,-17.05081 c 0.82617,-1.70768 1.55691,-3.21845 1.62386,-3.35726 l 0.12172,-0.25238 0.95819,1.22579 0.95817,1.22581 -0.94622,1.95626 -0.94623,1.95627 4.41221,5.64456 4.41221,5.64458 2.07067,-0.51778 2.07069,-0.51772 0.95817,1.22581 0.95817,1.2258 -0.26704,0.0666 c -0.14689,0.0366 -1.746,0.43639 -3.55361,0.88848 l -3.28653,0.82207 -5.52327,-7.06595 -5.52326,-7.06595 z"
           id="path12-4"
           inkscape:connector-curvature="0"
           inkscape:transform-center-x="-5.1562372"
           inkscape:transform-center-y="-4.3659145" /><path
           style="fill:#c87137;stroke-width:0.0127501"
           d="m 99.744349,206.75008 c -0.0375,-0.0842 -8.35482,-17.27604 -8.36038,-17.2806 -0.002,-0.002 -2.24782,2.8649 -4.98889,6.37157 -2.74109,3.50668 -4.98145,6.37769 -4.97861,6.38002 0.0103,0.007 18.31859,4.58363 18.33443,4.58185 0.0101,-0.002 0.007,-0.0222 -0.007,-0.0528 z m -9.33397,-5.20752 -4.12098,-1.03055 1.12818,-1.44818 c 0.62038,-0.79659 1.64019,-2.10123 2.26621,-2.89919 l 1.13805,-1.45101 1.9068,3.94207 1.90681,3.94207 -0.052,-0.0123 c -0.0286,-0.007 -1.90648,-0.47609 -4.17303,-1.04287 z m -1.43127,-17.05081 c -0.82617,-1.70768 -1.55691,-3.21845 -1.62386,-3.35726 l -0.12172,-0.25238 -0.95819,1.22579 -0.95817,1.22581 0.94622,1.95626 0.94623,1.95627 -4.41221,5.64456 -4.41221,5.64458 -2.070666,-0.51778 -2.07069,-0.51772 -0.95817,1.22581 -0.95817,1.2258 0.26704,0.0666 c 0.14689,0.0366 1.746,0.43639 3.55361,0.88848 l 3.286526,0.82207 5.52327,-7.06595 5.52326,-7.06595 z"
           id="path12-4-8"
           inkscape:connector-curvature="0"
           inkscape:transform-center-x="5.1562391"
           inkscape:transform-center-y="-4.3659145" /></g></g></g></svg>
